HIERARCHY
ROOT Hips
{
	OFFSET 0.000000 0.000000 0.000000 
	CHANNELS 6 Xposition Yposition Zposition Yrotation Zrotation Xrotation 
	JOINT Lumbar
	{
		OFFSET 0.000000 0.000000 0.000000 
		CHANNELS 3 Zrotation Xrotation Yrotation
		JOINT Neck
		{
			OFFSET 0.000000 0.445665 0.000000 
			CHANNELS 3 Zrotation Xrotation Yrotation
			End Site
			{
				OFFSET 0.000000 0.227535 0.000000 
			}
		}
		JOINT RightShoulder
		{
			OFFSET 0.019635 0.377685 0.194865 
			CHANNELS 3 Zrotation Xrotation Yrotation
			JOINT RightElbow
			{
				OFFSET 0.000000 -0.243375 0.000000 
				CHANNELS 2 Zrotation Yrotation
				JOINT RightWrist
				{
					OFFSET 0.000000 -0.264825 0.000000 
					CHANNELS 2 Zrotation Xrotation
					End Site
					{
						OFFSET 0.006600 -0.176220 0.000990 
					}
				}
			}
		}
		JOINT LeftShoulder
		{
			OFFSET 0.019635 0.377685 -0.194865 
			CHANNELS 3 Zrotation Xrotation Yrotation
			JOINT LeftElbow
			{
				OFFSET 0.000000 -0.243375 0.000000 
				CHANNELS 2 Zrotation Yrotation
				JOINT LeftWrist
				{
					OFFSET 0.000000 -0.264825 0.000000 
					CHANNELS 2 Zrotation Xrotation
					End Site
					{
						OFFSET 0.006600 -0.176220 -0.000990 
					}
				}
			}
		}
	}
	JOINT RightHip
	{
		OFFSET 0.052140 -0.069960 0.075570 
		CHANNELS 3 Zrotation Xrotation Yrotation
		JOINT RightKnee
		{
			OFFSET 0.000000 -0.402270 0.000000 
			CHANNELS 1 Zrotation
			JOINT RightAnkle
			{
				OFFSET 0.000000 -0.404085 0.000000 
				CHANNELS 3 Zrotation Xrotation Yrotation
				End Site
				{
					OFFSET 0.204105 -0.089430 0.008415 
				}
			}
		}
	}
	JOINT LeftHip
	{
		OFFSET 0.052140 -0.069960 -0.075570 
		CHANNELS 3 Zrotation Xrotation Yrotation
		JOINT LeftKnee
		{
			OFFSET 0.000000 -0.402270 0.000000 
			CHANNELS 1 Zrotation
			JOINT LeftAnkle
			{
				OFFSET 0.000000 -0.404085 0.000000 
				CHANNELS 3 Zrotation Xrotation Yrotation
				End Site
				{
					OFFSET 0.204105 -0.089430 -0.008415 
				}
			}
		}
	}
}
MOTION
Frames: 19
Frame Time: 0.02
1.25759 0.95682 -0.70652 -24.36444 0 -8.05251 0.5032 1.83722 2.13075 5.00739 11.00356 1.52521 26.20371 -24.09379 22.73171 137.62411 135.28915 -79.69577 -22.96386 -29.46996 26.18819 -63.18303 65.7566 -114.11319 -79.69843 22.97559 13.26714 9.84701 7.47299 -29.00255 6.72535 -7.18529 -15.12705 4.49328 -0.65413 -13.25264 -20.40031 9.48896 8.86055 13.30564
1.2657 0.9569 -0.70357 -24.42965 0 -8.25907 0.4078 2.14452 1.71319 4.33033 11.64488 1.18737 29.39029 -24.18078 24.26133 137.62476 134.24453 -79.70192 -22.98986 -28.86157 25.25488 -63.16218 65.13554 -114.11972 -79.69843 22.97559 13.98827 9.83262 7.68596 -26.37784 6.0002 -6.92725 -14.42218 3.85007 -0.44057 -13.06162 -20.12877 9.76287 9.04571 13.30992
1.27386 0.95685 -0.70038 -24.38377 0 -8.40925 0.32708 2.42692 1.28165 3.64272 12.27161 0.9269 32.44783 -24.21931 25.84766 137.62456 132.98788 -79.69847 -22.97778 -28.12874 24.31835 -63.19549 64.45223 -114.07143 -79.69843 22.97558 14.57063 9.71729 7.79333 -23.59241 5.13585 -6.58616 -13.64464 3.16235 -0.26248 -12.89473 -19.77625 10.01123 9.21312 13.22564
1.28203 0.95684 -0.69728 -24.38196 0 -8.58066 0.24294 2.71978 0.85172 2.97074 12.90051 0.63667 35.55031 -24.28546 27.38 137.6231 131.89464 -79.68521 -22.91367 -27.46169 23.38165 -63.2077 63.78725 -114.05369 -79.69843 22.97557 15.20415 9.64605 7.97248 -20.89349 4.35111 -6.30223 -12.93986 2.49064 -0.07084 -12.71905 -19.45747 10.27422 9.38944 13.17627
1.29003 0.95693 -0.69427 -24.40941 0 -8.7698 0.14484 3.01635 0.44018 2.23956 13.55706 0.31986 38.74137 -24.32546 29.0554 137.62779 130.51198 -79.73417 -23.13213 -26.74431 22.4379 -63.20426 63.15744 -114.01336 -79.69843 22.97556 15.88619 9.58476 8.08089 -18.11764 3.49314 -5.94027 -12.06106 1.83744 0.13046 -12.53481 -19.1516 10.52371 9.56229 13.15251
1.29841 0.95676 -0.69099 -24.34851 0 -8.90871 0.07987 3.29878 -0.01069 1.63727 14.14262 0.07949 41.69818 -24.40857 30.43141 137.62015 129.68015 -79.64823 -22.76564 -26.10997 21.52237 -63.2459 62.44774 -114.00539 -79.69842 22.97555 16.43544 9.47826 8.29162 -15.48068 2.75715 -5.71676 -11.52277 1.13472 0.30384 -12.37395 -18.80032 10.79595 9.73855 13.05286
1.30782 0.95598 -0.68707 -24.07303 0 -8.9258 0.09743 3.55425 -0.58533 1.35666 14.61465 0.01506 44.12801 -24.63218 31.03447 137.57394 130.47404 -79.21995 -20.68501 -25.69285 20.57836 -63.40742 61.46636 -114.11439 -79.69842 22.97555 16.64403 9.26725 8.91997 -13.15452 2.37946 -5.93137 -12.03252 0.30768 0.40705 -12.2716 -18.3355 11.13222 9.92378 12.76985
1.31763 0.95493 -0.68286 -23.71177 0 -8.89402 0.14915 3.79542 -1.19427 1.21375 14.99961 0.02766 46.30597 -24.89919 31.31778 137.5162 131.82271 -78.65252 -18.03748 -25.37201 19.68546 -63.6111 60.42047 -114.25475 -79.69842 22.97555 16.72486 9.01521 9.63455 -10.99624 2.13107 -6.28182 -12.87415 -0.56794 0.48405 -12.19221 -17.82978 11.49323 10.11422 12.41269
1.3273 0.95398 -0.67872 -23.38809 0 -8.88257 0.1882 4.0391 -1.77706 1.03431 15.37403 0.01673 48.53926 -25.14099 31.70236 137.46697 132.88251 -78.12864 -15.72013 -25.03679 18.83735 -63.78998 59.44603 -114.37206 -79.69842 22.97555 16.8702 8.78368 10.23156 -8.83556 1.83351 -6.54627 -13.50502 -1.42255 0.5741 -12.10191 -17.34709 11.84627 10.30488 12.08562
1.3368 0.95313 -0.67483 -23.06657 0 -8.87647 0.21418 4.29821 -2.41049 0.74724 15.96451 -0.03756 51.02177 -25.40569 32.2808 137.40419 134.08405 -77.6814 -13.0941 -24.57551 17.69343 -63.99433 58.28621 -114.52657 -79.69842 22.97555 16.98561 8.53843 11.14449 -6.35598 1.49487 -6.9088 -14.38017 -2.2746 0.65733 -12.01313 -16.84022 12.18464 10.48257 11.76914
1.34674 0.952 -0.67035 -22.72154 0 -8.84914 0.27726 4.52278 -2.93942 0.71357 16.07825 0.01268 52.9224 -25.63177 32.37168 137.36655 135.13218 -77.04932 -10.97823 -24.39828 17.18848 -64.15518 57.50465 -114.6093 -79.69842 22.97555 17.13211 8.31633 11.43583 -4.58406 1.26892 -7.10226 -14.83381 -3.1424 0.74997 -11.928 -16.37832 12.55973 10.69057 11.41616
1.35768 0.95022 -0.66451 -22.33454 0 -8.76904 0.41787 4.64992 -3.23293 1.37759 14.95194 0.35948 53.31751 -25.7562 31.25635 137.40419 135.55808 -75.873 -10.39827 -25.0085 18.34178 -64.18341 57.72541 -114.50684 -79.69842 22.97555 17.42049 8.14268 9.85936 -4.71642 1.37125 -6.77919 -13.97551 -4.0458 0.86703 -11.8326 -16.02441 13.03008 10.96421 10.96362
1.36905 0.94816 -0.65807 -21.92767 0 -8.67091 0.59785 4.74397 -3.40982 2.28577 13.34032 0.80387 53.12995 -25.83718 29.65173 137.46697 135.82173 -74.52704 -10.35317 -25.89664 20.15145 -64.16653 58.33884 -114.32711 -79.69842 22.97555 17.74109 7.99896 7.67632 -5.55868 1.57524 -6.28439 -12.69206 -4.96206 0.99621 -11.74245 -15.72341 13.53618 11.27068 10.48053
1.38029 0.94621 -0.65182 -21.52832 0 -8.58507 0.77033 4.85698 -3.59807 3.06184 11.91272 1.18506 53.18244 -25.92854 28.22738 137.5162 136.20396 -73.30476 -10.07156 -26.64109 21.72517 -64.17148 58.81256 -114.16989 -79.69842 22.97555 18.03083 7.85879 5.86045 -6.08118 1.70004 -5.87983 -11.65052 -5.87001 1.12516 -11.65974 -15.41459 14.02679 11.57415 10.02296
1.39127 0.94432 -0.64591 -21.12963 0 -8.47934 0.89934 4.95296 -3.95807 3.93315 10.62945 1.64676 53.32628 -26.06256 26.96046 137.57394 136.42245 -71.88564 -9.7444 -27.46344 23.04748 -64.17238 59.12609 -114.06839 -79.69842 22.97555 18.38263 7.64486 3.67277 -6.59306 1.96399 -5.42992 -10.4247 -6.7915 1.23058 -11.53739 -15.03191 14.5172 11.83044 9.51359
1.40289 0.94226 -0.63915 -20.72932 0 -8.41247 1.12879 5.07667 -3.93877 4.66082 8.94004 1.96522 53.15015 -26.09482 25.2651 137.62015 136.92828 -70.83213 -9.6441 -28.18675 25.03607 -64.17036 59.8603 -113.83028 -79.69842 22.97555 18.61684 7.59202 2.09986 -7.29886 1.96627 -5.03011 -9.46517 -7.68545 1.38861 -11.49725 -14.82102 15.01351 12.18897 9.10587
1.41612 0.93972 -0.6303 -20.30057 0 -8.44848 1.61706 5.28562 -2.8437 4.94404 6.17472 1.84325 52.18797 -25.87451 22.40986 137.62778 138.33343 -70.8824 -10.06361 -28.58182 28.81138 -64.17163 61.72116 -113.25007 -79.69842 22.97552 18.49691 7.97829 2.49659 -8.31727 1.17259 -4.82569 -9.44864 -8.51277 1.686 -11.69391 -15.03406 15.53942 12.85042 8.98409
1.42999 0.93704 -0.6206 -19.87627 0 -8.52607 2.20639 5.52348 -1.38145 5.07157 3.03198 1.57685 50.93371 -25.55025 19.16076 137.62312 140.01828 -71.29802 -10.6915 -28.86495 33.21366 -64.17123 63.98057 -112.53267 -79.69842 22.97548 18.26065 8.52518 3.50901 -9.51239 0.12103 -4.67407 -9.69387 -9.30785 2.03664 -11.97091 -15.4276 16.06521 13.60576 8.96477
1.44361 0.93446 -0.61122 -19.46977 0 -8.59077 2.75529 5.74796 -0.12436 5.26156 0.10982 1.39048 49.84387 -25.26108 16.15583 137.62454 141.52881 -71.51165 -11.21074 -29.18985 37.25891 -64.17118 66.01807 -111.86623 -79.69842 22.97545 18.09441 8.99815 4.15857 -10.66093 -0.78203 -4.48782 -9.7495 -10.1111 2.36493 -12.20376 -15.76049 16.57723 14.30244 8.90252
